<?xml version="1.0" encoding="utf-8"?>
<!-- Generator: Adobe Illustrator 16.0.0, SVG Export Plug-In . SVG Version: 6.00 Build 0)  -->
<!DOCTYPE svg PUBLIC "-//W3C//DTD SVG 1.1//EN" "http://www.w3.org/Graphics/SVG/1.1/DTD/svg11.dtd">
<svg version="1.1" id="Layer_1" xmlns="http://www.w3.org/2000/svg" xmlns:xlink="http://www.w3.org/1999/xlink" x="0px" y="0px"
	 width="1000px" height="250px" viewBox="0 0 1000 250" enable-background="new 0 0 1000 250" xml:space="preserve">
<g>
	<polygon fill="#ED1C24" points="295.57,248.974 260.479,248.974 257.377,247.182 154.143,187.614 48.799,248.401 47.806,248.974 
		11.333,248.974 22.994,228.749 36.357,205.568 73.557,141.111 101.435,157.187 92.06,173.437 78.698,196.6 124.209,170.336 
		139.025,161.775 153.753,153.284 169.065,162.128 183.688,170.567 227.888,196.068 214.524,172.905 205.804,157.806 
		233.683,141.713 270.245,205.054 283.59,228.202 	"/>
	<polygon fill="#ED1C24" points="117.55,149.387 145.662,133.164 122.88,120.02 153.451,67.065 184.165,120.286 161.844,133.164 
		190.543,149.729 198.503,145.133 226.38,129.061 218.725,115.785 212.043,104.194 172.025,34.864 153.451,2.661 134.878,34.864 
		95.002,103.947 88.32,115.519 80.966,128.28 108.843,144.354 	"/>
	<path fill="#FFFFFF" d="M393.823,103.625h-16.322l-4.929-13.332h-25.371l-4.93,13.332h-16.322l26.907-66.662h14.06L393.823,103.625
		z M359.969,57.568h-0.163l-7.433,19.394h15.029L359.969,57.568z"/>
	<path fill="#FFFFFF" d="M398.833,53.367c0.081-12.121,5.898-20.443,16.241-20.443c7.271,0,11.798,3.717,11.798,3.717l-5.011,10.1
		c0,0-1.939-1.13-4.283-1.13c-3.636,0-4.443,2.425-4.443,8.161v8.404h9.533v10.907h-9.533v30.543h-14.302V73.082h-5.98V62.175h5.98
		V53.367z"/>
	<path fill="#FFFFFF" d="M427.513,62.174h14.3v5.979h0.163c0,0,4.525-7.192,12.686-7.192c5.333,0,9.049,2.586,9.049,2.586
		l-5.98,12.12c0,0-2.666-2.262-7.433-2.262c-7.434,0-8.485,7.353-8.485,8.403v21.817h-14.3V62.174z"/>
	<path fill="#FFFFFF" d="M484.518,45.043c0,4.688-3.798,8.485-8.484,8.485c-4.688,0-8.485-3.797-8.485-8.485
		c0-4.686,3.797-8.482,8.485-8.482C480.719,36.561,484.518,40.358,484.518,45.043 M468.681,103.625h14.302V62.174h-14.302V103.625z"
		/>
	<rect x="487.991" y="74.052" fill="#FFFFFF" width="26.019" height="12.362"/>
	<polygon fill="#FFFFFF" points="535.971,103.625 513.751,62.175 530.234,62.175 540.336,84.555 550.275,62.175 560.133,62.175 
		570.072,84.555 580.171,62.175 596.653,62.175 574.432,103.625 564.736,103.625 555.204,82.213 545.669,103.625 	"/>
	<path fill="#FFFFFF" d="M614.727,60.961c5.575,0,10.184,1.858,13.577,5.172v-3.96h14.302v41.451h-14.141v-4.687h-0.161
		c-3.071,3.394-7.92,5.897-13.577,5.897c-12.118,0-20.602-9.777-20.602-21.896C594.125,70.819,602.608,60.961,614.727,60.961
		 M619.01,92.636c5.577,0,9.616-4.041,9.616-9.696c0-5.736-4.282-9.776-9.616-9.776c-5.413,0-9.696,4.041-9.696,9.776
		C609.313,88.595,613.194,92.636,619.01,92.636"/>
	<polygon fill="#FFFFFF" points="701.994,62.174 669.428,124.633 652.947,124.633 667.249,97.162 647.613,62.174 664.094,62.174 
		675.651,83.425 685.509,62.174 	"/>
	<path fill="#FFFFFF" d="M774.455,85.768l6.464,12.928c0,0-7.433,6.14-21.896,6.14c-18.826,0-36.117-15.35-36.117-34.421
		c0-19.15,17.209-34.663,36.117-34.663c14.463,0,21.896,6.14,21.896,6.14l-6.464,12.929c0,0-5.331-4.12-13.087-4.12
		c-15.273,0-21.98,10.665-21.98,19.554c0,8.967,6.707,19.633,21.98,19.633C769.124,89.888,774.455,85.768,774.455,85.768"/>
	<path fill="#FFFFFF" d="M802.567,60.961c5.574,0,10.181,1.858,13.576,5.172v-3.96h14.3v41.451h-14.141v-4.687h-0.159
		c-3.073,3.394-7.92,5.897-13.576,5.897c-12.121,0-20.603-9.777-20.603-21.896C781.965,70.819,790.446,60.961,802.567,60.961
		 M806.85,92.636c5.575,0,9.614-4.041,9.614-9.696c0-5.736-4.282-9.776-9.614-9.776c-5.413,0-9.695,4.041-9.695,9.776
		C797.154,88.595,801.032,92.636,806.85,92.636"/>
	<path fill="#FFFFFF" d="M835.454,62.174h14.302v5.979h0.159c0,0,4.526-7.192,12.685-7.192c5.334,0,9.05,2.586,9.05,2.586
		l-5.977,12.12c0,0-2.668-2.262-7.436-2.262c-7.433,0-8.481,7.353-8.481,8.403v21.817h-14.302V62.174z"/>
	<path fill="#FFFFFF" d="M883.174,108.068c1.535,2.505,5.012,5.334,11.234,5.334c3.957,0,10.101-2.343,10.101-9.696v-3.07
		c-3.073,3.394-7.92,4.201-13.579,4.201c-12.118,0-20.6-9.777-20.6-21.896c0-12.121,8.481-21.978,20.6-21.978
		c5.498,0,9.939,1.779,13.334,4.93h0.245v-3.718h14.3v42.583c0,13.897-10.263,21.089-24.4,21.089
		c-8.647,0-18.585-1.94-22.947-12.042L883.174,108.068z M895.213,92.636c5.577,0,9.617-4.041,9.617-9.696
		c0-5.736-4.283-9.776-9.617-9.776c-5.413,0-9.693,4.041-9.693,9.776C885.52,88.595,889.397,92.636,895.213,92.636"/>
	<path fill="#FFFFFF" d="M947.775,60.961c13.738,0,24.726,9.05,24.726,21.978c0,12.767-10.421,21.896-24.726,21.896
		c-14.948,0-24.97-9.13-24.97-21.896C922.806,70.012,933.799,60.961,947.775,60.961 M947.695,92.636
		c5.575,0,9.617-4.041,9.617-9.696c0-5.736-4.283-9.776-9.617-9.776c-5.413,0-9.695,4.041-9.695,9.776
		C938,88.595,941.877,92.636,947.695,92.636"/>
	<polygon fill="#FFFFFF" points="342.03,183.155 364.979,183.155 364.979,196.488 326.84,196.488 326.84,129.828 342.03,129.828 	
		"/>
	<path fill="#FFFFFF" d="M394.469,153.826c13.735,0,24.725,9.05,24.725,21.976c0,12.767-10.423,21.896-24.725,21.896
		c-14.949,0-24.968-9.13-24.968-21.896C369.501,162.876,380.49,153.826,394.469,153.826 M394.387,185.5
		c5.576,0,9.617-4.042,9.617-9.698c0-5.736-4.283-9.775-9.617-9.775c-5.413,0-9.696,4.039-9.696,9.775
		C384.691,181.458,388.57,185.5,394.387,185.5"/>
	<path fill="#FFFFFF" d="M437.05,200.933c1.535,2.504,5.009,5.333,11.231,5.333c3.958,0,10.101-2.345,10.101-9.695v-3.07
		c-3.072,3.391-7.92,4.198-13.576,4.198c-12.12,0-20.604-9.773-20.604-21.896c0-12.118,8.484-21.976,20.604-21.976
		c5.495,0,9.939,1.775,13.333,4.929h0.243v-3.717h14.301v42.583c0,13.896-10.261,21.089-24.402,21.089
		c-8.645,0-18.584-1.94-22.948-12.039L437.05,200.933z M449.089,185.5c5.575,0,9.616-4.042,9.616-9.698
		c0-5.736-4.284-9.775-9.616-9.775c-5.415,0-9.697,4.039-9.697,9.775C439.392,181.458,443.271,185.5,449.089,185.5"/>
	<path fill="#FFFFFF" d="M493.619,137.909c0,4.683-3.798,8.481-8.484,8.481c-4.687,0-8.483-3.799-8.483-8.481
		c0-4.69,3.797-8.489,8.483-8.489C489.82,129.42,493.619,133.219,493.619,137.909 M477.781,196.488h14.302v-41.45h-14.302V196.488z"
		/>
	<path fill="#FFFFFF" d="M530.841,157.058l-4.686,9.371c0,0-4.847-2.584-9.212-2.584c-3.15,0-4.444,0.566-4.444,2.504
		c0,2.182,2.909,2.83,6.464,3.96c5.498,1.699,12.605,4.768,12.605,13.251c0,12.2-11.149,14.139-19.636,14.139
		c-10.017,0-15.996-5.575-15.996-5.575l5.815-9.775c0,0,5.657,4.768,10.263,4.768c2.02,0,4.444-0.244,4.444-2.989
		c0-2.99-4.526-3.231-9.212-5.659c-4.203-2.179-8.401-5.088-8.401-11.308c0-8.486,7.189-13.333,18.098-13.333
		C524.945,153.826,530.841,157.058,530.841,157.058"/>
	<path fill="#FFFFFF" d="M540.705,139.604h14.303v15.435h8.727v10.906h-8.727v13.171c0,3.878,0.971,5.736,3.231,5.736
		c1.861,0,3.558-1.292,3.558-1.292l3.553,11.558c0,0-4.605,2.581-10.504,2.581c-11.393,0-14.141-8.481-14.141-15.835v-15.919h-5.977
		v-10.906h5.977V139.604z"/>
	<path fill="#FFFFFF" d="M586.25,137.909c0,4.683-3.796,8.481-8.481,8.481c-4.688,0-8.484-3.799-8.484-8.481
		c0-4.69,3.796-8.489,8.484-8.489C582.454,129.42,586.25,133.219,586.25,137.909 M570.412,196.488h14.305v-41.45h-14.305V196.488z"
		/>
	<path fill="#FFFFFF" d="M604.916,175.722c0,5.736,4.442,10.263,9.855,10.263c4.283,0,6.951-1.938,6.951-1.938l4.85,9.938
		c0,0-4.688,3.714-13.9,3.714c-11.959,0-22.949-9.694-22.949-21.814c0-12.203,10.911-22.058,22.949-22.058
		c9.212,0,13.9,3.878,13.9,3.878l-4.85,9.775c0,0-2.668-1.938-6.951-1.938C609.358,165.542,604.916,170.065,604.916,175.722"/>
	<path fill="#FFFFFF" d="M664.959,157.058l-4.686,9.371c0,0-4.85-2.584-9.214-2.584c-3.15,0-4.442,0.566-4.442,2.504
		c0,2.182,2.906,2.83,6.464,3.96c5.495,1.699,12.605,4.768,12.605,13.251c0,12.2-11.149,14.139-19.633,14.139
		c-10.021,0-16.001-5.575-16.001-5.575l5.817-9.775c0,0,5.654,4.768,10.263,4.768c2.02,0,4.442-0.244,4.442-2.989
		c0-2.99-4.521-3.231-9.21-5.659c-4.2-2.179-8.401-5.088-8.401-11.308c0-8.486,7.189-13.333,18.096-13.333
		C659.061,153.826,664.959,157.058,664.959,157.058"/>
	<rect x="696.082" y="129.828" fill="#FFFFFF" width="15.193" height="66.66"/>
	<path fill="#FFFFFF" d="M716.283,155.038h14.303v4.365h0.158c3.232-3.232,7.352-5.577,11.88-5.577
		c7.595,0,18.178,3.798,18.178,15.353v27.31h-14.3v-23.432c0-4.121-2.827-8.081-7.436-8.081c-4.28,0-8.48,3.96-8.48,8.081v23.432
		h-14.303V155.038z"/>
	<path fill="#FFFFFF" d="M781.001,175.722c0,5.736,4.444,10.263,9.86,10.263c4.283,0,6.946-1.938,6.946-1.938l4.849,9.938
		c0,0-4.688,3.714-13.896,3.714c-11.959,0-22.95-9.694-22.95-21.814c0-12.203,10.909-22.058,22.95-22.058
		c9.209,0,13.896,3.878,13.896,3.878l-4.849,9.775c0,0-2.663-1.938-6.946-1.938C785.445,165.542,781.001,170.065,781.001,175.722"/>
	<path fill="#FFFFFF" d="M825.604,188.488c0,5.093-4.123,9.212-9.293,9.212c-5.091,0-9.212-4.119-9.212-9.212
		c0-5.172,4.121-9.291,9.212-9.291C821.48,179.197,825.604,183.316,825.604,188.488"/>
</g>
</svg>
