<?xml version="1.0" encoding="utf-8"?>
<!-- Generator: Adobe Illustrator 16.0.0, SVG Export Plug-In . SVG Version: 6.00 Build 0)  -->
<!DOCTYPE svg PUBLIC "-//W3C//DTD SVG 1.1//EN" "http://www.w3.org/Graphics/SVG/1.1/DTD/svg11.dtd">
<svg version="1.1" id="Layer_1" xmlns="http://www.w3.org/2000/svg" xmlns:xlink="http://www.w3.org/1999/xlink" x="0px" y="0px"
	 width="31px" height="28px" viewBox="0 -7.041 31 28" enable-background="new 0 -7.041 31 28" xml:space="preserve">
<g>
	<g>
		<path fill="#FFFFFF" d="M30.424-0.271L24.3-6.396c-0.193-0.194-0.508-0.194-0.701,0c-0.192,0.192-0.192,0.507,0,0.701l5.277,5.276
			H0.926c-0.272,0-0.495,0.223-0.495,0.496c0,0.274,0.223,0.495,0.495,0.495h27.95l-5.413,5.415c-0.193,0.193-0.193,0.508,0,0.701
			c0.097,0.098,0.224,0.145,0.351,0.145s0.255-0.047,0.351-0.145l6.261-6.261C30.617,0.235,30.617-0.078,30.424-0.271z"/>
	</g>
</g>
<g>
	<g>
		<path fill="#FFFFFF" d="M0.576,14.054l6.261,6.261c0.096,0.098,0.224,0.145,0.351,0.145s0.254-0.047,0.351-0.145
			c0.193-0.193,0.193-0.508,0-0.701l-5.413-5.415h27.949c0.272,0,0.495-0.221,0.495-0.495c0-0.273-0.223-0.496-0.495-0.496H2.125
			l5.277-5.276c0.192-0.194,0.192-0.509,0-0.701c-0.193-0.194-0.508-0.194-0.701,0l-6.124,6.124
			C0.383,13.547,0.383,13.86,0.576,14.054z"/>
	</g>
</g>
</svg>
