<?xml version="1.0" encoding="utf-8"?>
<!-- Generator: Adobe Illustrator 16.0.0, SVG Export Plug-In . SVG Version: 6.00 Build 0)  -->
<!DOCTYPE svg PUBLIC "-//W3C//DTD SVG 1.1//EN" "http://www.w3.org/Graphics/SVG/1.1/DTD/svg11.dtd">
<svg version="1.1" id="Layer_1" xmlns="http://www.w3.org/2000/svg" xmlns:xlink="http://www.w3.org/1999/xlink" x="0px" y="0px"
	 width="31px" height="13.918px" viewBox="0 0 31 13.918" enable-background="new 0 0 31 13.918" xml:space="preserve">
<g>
	<g>
		<path fill="#FFFFFF" d="M0.576,7.241l6.261,6.261c0.096,0.098,0.224,0.145,0.351,0.145s0.254-0.047,0.351-0.145
			c0.193-0.193,0.193-0.508,0-0.701L2.125,7.386h27.949c0.272,0,0.495-0.221,0.495-0.495c0-0.273-0.223-0.496-0.495-0.496H2.125
			l5.277-5.276c0.192-0.194,0.192-0.509,0-0.701c-0.193-0.194-0.508-0.194-0.701,0L0.577,6.541C0.384,6.734,0.384,7.048,0.576,7.241
			z"/>
	</g>
</g>
</svg>
