<svg xmlns="http://www.w3.org/2000/svg" xmlns:xlink="http://www.w3.org/1999/xlink" width="343.742" height="343.742" viewBox="0 0 343.742 343.742">
  <defs>
    <clipPath id="clip-path">
      <path id="Path_9" data-name="Path 9" d="M-1171.052-1255.531v-343.742l343.742,343.742Z" transform="translate(843 -341)" fill="#00ebc7"/>
    </clipPath>
  </defs>
  <g id="Mask_Group_1" data-name="Mask Group 1" transform="translate(328.052 1940.273)" clip-path="url(#clip-path)">
    <g id="Group_4" data-name="Group 4" transform="translate(-1952.518 -1814.503)">
      <path id="Path_10" data-name="Path 10" d="M542.383-676.822c-33.609,8.676-201.845,38.182-163.7,107.837,22.3,40.712,88.226,64.832,127.18,83.684,56.643,27.413,118.489,50.886,169.346,88.6,55.487,41.147,36.1,74.623-20.426,102.923" transform="translate(0 160.922)" fill="none" stroke="#fff" stroke-miterlimit="10" stroke-width="1"/>
      <path id="Path_11" data-name="Path 11" d="M551.146-679.757c-34.253,8.88-201.918,38.237-167.654,108.253,21.288,43.5,92.774,69.1,132.945,88.58C573.4-455.305,635.37-431.681,686.93-394.347c15.791,11.435,40.161,29.284,40.779,51.24.857,30.331-38.706,46.4-60.2,57.015" transform="translate(4.785 158.505)" fill="none" stroke="#fff" stroke-miterlimit="10" stroke-width="1"/>
      <path id="Path_12" data-name="Path 12" d="M559.469-682.679c-34.4,8.958-208.852,39.957-168.234,113.542,24.045,43.558,93.437,68.349,135.378,88.6,59.476,28.721,125.493,53.087,178.336,93.492,59.307,45.348,33.277,80.21-25.132,108.652" transform="translate(9.922 156.099)" fill="none" stroke="#fff" stroke-miterlimit="10" stroke-width="1"/>
      <path id="Path_13" data-name="Path 13" d="M568.1-685.588c-34.723,9.082-209.268,40.5-172.028,113.951,23.311,45.974,98.326,72.74,141.256,93.5,61.874,29.926,131.543,55.372,185.921,98.419,58.506,46.317,25.373,82.052-30.794,109.035" transform="translate(14.66 153.704)" fill="none" stroke="#fff" stroke-miterlimit="10" stroke-width="1"/>
      <path id="Path_14" data-name="Path 14" d="M576.716-688.484C542.144-679.4,358.333-645.265,403.734-569.2c27.114,45.429,99.542,71.9,144.342,93.483C610.584-445.6,679.238-419.559,734.883-377.3c63.291,48.071,31.421,85.325-29.784,114.345" transform="translate(19.332 151.319)" fill="none" stroke="#fff" stroke-miterlimit="10" stroke-width="1"/>
      <path id="Path_15" data-name="Path 15" d="M585.144-691.367C549.27-681.894,366.828-648.1,408.519-571.683c26.471,48.516,103.8,75.936,150.339,98.391C621.641-443,690.594-416.912,746.79-374.9c17.791,13.3,42.254,31.975,41.687,56.683-.784,34.224-45.562,51.14-70.9,63" transform="translate(24.104 148.945)" fill="none" stroke="#fff" stroke-miterlimit="10" stroke-width="1"/>
      <path id="Path_16" data-name="Path 16" d="M593.471-694.237c-36.525,9.691-218.166,43.313-180.07,120.07,25.3,50.983,108.734,80.5,156.188,103.317,65.362,31.432,137.839,58.552,195.6,103.317,66.082,51.212,28.3,90.708-35.23,120.072" transform="translate(28.893 146.582)" fill="none" stroke="#fff" stroke-miterlimit="10" stroke-width="1"/>
      <path id="Path_17" data-name="Path 17" d="M601.482-697.094c-39.258,10.468-225.343,45.83-180.194,125.382C450.1-520.947,530.611-492.273,580.221-468.4c67.421,32.45,144.522,60.406,203.03,108.256,64.728,52.934,21.135,91.991-41.2,120.442" transform="translate(33.912 144.23)" fill="none" stroke="#fff" stroke-miterlimit="10" stroke-width="1"/>
      <path id="Path_18" data-name="Path 18" d="M609.728-699.938c-40.465,10.844-233.656,48.6-180.589,130.724,32.34,50.044,111.154,78.875,162.009,103.286,68.256,32.763,143.707,61.342,203.9,108.247,17.129,13.347,40.414,32.657,39.741,56.87-1.047,37.675-52.631,56.373-80.4,68.892" transform="translate(38.612 141.888)" fill="none" stroke="#fff" stroke-miterlimit="10" stroke-width="1"/>
      <path id="Path_19" data-name="Path 19" d="M617.766-702.769c-38.224,10.3-233.447,48.674-183.928,131.115,31.922,53.142,115.563,82.907,168.23,108.207C670.531-430.56,746.4-401.905,807.075-355.239c18.489,14.221,44.881,35.522,42.918,62.071-2.777,37.552-56.274,56.931-83.459,69.042" transform="translate(43.44 139.557)" fill="none" stroke="#fff" stroke-miterlimit="10" stroke-width="1"/>
      <path id="Path_20" data-name="Path 20" d="M625.785-705.586C586.4-694.925,392.491-657.147,438.7-574.1c31.075,55.849,120.446,87.322,174.333,113.143,71.06,34.051,150.3,63.681,212.492,113.143,18.526,14.735,42.79,35.894,39.626,62.3-4.495,37.506-58.641,56.925-86.486,69.186" transform="translate(48.203 137.237)" fill="none" stroke="#fff" stroke-miterlimit="10" stroke-width="1"/>
      <path id="Path_21" data-name="Path 21" d="M633.33-708.391c-43.485,11.836-238.683,50.412-186.7,136.813,33.42,55.543,121.952,86.693,177.092,113.13,73.031,35.019,156.958,65.506,219.749,118.09,71.848,60.169,13.07,103.039-53.138,131.855" transform="translate(53.362 134.927)" fill="none" stroke="#fff" stroke-miterlimit="10" stroke-width="1"/>
      <path id="Path_22" data-name="Path 22" d="M641.358-711.182c-43.7,11.956-247.677,54.168-186.546,142.161,38.162,54.932,122.317,85.423,180.153,113.094,73.927,35.365,156.11,66.409,220.6,118.07,18.788,15.05,42.037,35.686,39.845,62.3-3.382,41.067-62.454,61.783-92.916,74.89" transform="translate(57.957 132.629)" fill="none" stroke="#fff" stroke-miterlimit="10" stroke-width="1"/>
      <path id="Path_23" data-name="Path 23" d="M649.094-713.961C606.35-702.2,401.76-659.828,459.506-571.419c37.914,58.043,127.163,89.575,186.6,118.024,74.284,35.558,156.321,66.823,221.687,118.024,20.466,16.03,46.306,38.658,42.706,67.508-5.179,41.486-65.083,61.823-96.132,75.034" transform="translate(62.764 130.341)" fill="none" stroke="#fff" stroke-miterlimit="10" stroke-width="1"/>
      <path id="Path_24" data-name="Path 24" d="M656.783-716.726c-43.346,11.991-246.975,54.181-192.464,142.908,37.3,60.707,132.137,93.922,192.945,122.968,76.5,36.541,162.922,68.52,228.975,122.969,18.4,15.164,41.716,36.065,40.321,62.271-2.381,44.763-68.276,67.133-100.37,80.637" transform="translate(67.542 128.064)" fill="none" stroke="#fff" stroke-miterlimit="10" stroke-width="1"/>
      <path id="Path_25" data-name="Path 25" d="M664.028-719.479c-47.671,13.262-252.045,56.271-191.575,148.24,39.439,59.981,134.078,93.492,195.709,122.949,78.414,37.477,169.348,70.561,236.052,127.922,78.285,67.32,3.206,114.2-66.638,143.266" transform="translate(72.687 125.797)" fill="none" stroke="#fff" stroke-miterlimit="10" stroke-width="1"/>
      <path id="Path_26" data-name="Path 26" d="M671.7-722.218c-47.925,13.408-260.313,60.034-190.884,153.6,44.2,59.558,134.331,92.172,198.752,122.9,77.369,36.906,162.775,69.609,230.75,122.9,21.511,16.865,50.705,41.676,46.278,72.669-6.48,45.363-73.064,66.87-107.208,80.929" transform="translate(77.327 123.542)" fill="none" stroke="#fff" stroke-miterlimit="10" stroke-width="1"/>
      <path id="Path_27" data-name="Path 27" d="M679.141-724.944c-48,13.506-259.762,60.2-193.638,153.967,43.911,62.27,139.562,96.417,205.408,127.843C770.388-405.2,859.924-371.5,928.862-315.292c21.133,17.233,48.457,42.238,42.684,72.9-8.574,45.543-75.132,66.628-110.579,81.067" transform="translate(82.125 121.297)" fill="none" stroke="#fff" stroke-miterlimit="10" stroke-width="1"/>
      <path id="Path_28" data-name="Path 28" d="M686.549-727.657C637.967-713.909,427.124-667.6,490.311-573.33c43.864,65.441,144.079,100.439,212,132.794,81.935,39.034,175.1,73.429,245.032,132.794,20.907,17.749,46.165,42.765,39.09,73.126-10.634,45.638-77.517,66.527-113.92,81.2" transform="translate(86.879 119.063)" fill="none" stroke="#fff" stroke-miterlimit="10" stroke-width="1"/>
      <path id="Path_29" data-name="Path 29" d="M693.547-730.357c-53.326,15.178-264.384,61.949-194.852,159.666,45.695,64.217,146.832,100.39,214.76,132.767,83.545,39.82,181.63,75.531,251.914,137.754,85.112,75.349-8.016,125.269-81.733,154.679" transform="translate(91.972 116.84)" fill="none" stroke="#fff" stroke-miterlimit="10" stroke-width="1"/>
      <path id="Path_30" data-name="Path 30" d="M700.9-733.044c-54.527,15.612-271.906,65.734-193.634,165.028C557.9-503.777,653.4-469.4,725.044-435.3c82.94,39.466,174.568,74.775,246.77,132.714,23.446,18.812,51.564,44.995,45.033,78.1-9.682,49.1-82.993,71.626-121.735,86.924" transform="translate(96.637 114.628)" fill="none" stroke="#fff" stroke-miterlimit="10" stroke-width="1"/>
      <path id="Path_31" data-name="Path 31" d="M708.051-735.718c-54.96,15.831-271.206,66.033-196.108,165.391C562.4-503.57,664.185-467.134,736.591-432.664,821.438-392.272,917.612-356.234,990.358-295c20.978,17.658,46.907,42.515,42.777,72.853-7.157,52.595-86.8,76.923-126.757,92.54" transform="translate(101.43 112.426)" fill="none" stroke="#fff" stroke-miterlimit="10" stroke-width="1"/>
      <path id="Path_32" data-name="Path 32" d="M715.114-738.379c-55.058,15.955-270.4,66.4-198.439,165.747,50.08,69.131,157.264,107.348,231.463,142.619,86.727,41.226,187.542,78.567,260.635,142.62,20.53,17.988,44.708,43,39.3,73.062-9.482,52.713-89.553,76.824-130.529,92.682" transform="translate(106.241 110.235)" fill="none" stroke="#fff" stroke-miterlimit="10" stroke-width="1"/>
      <path id="Path_33" data-name="Path 33" d="M721.8-741.027c-59.279,17.282-274.864,68.6-196.561,171.093,52.826,69.146,158.444,106.548,234.22,142.584,88.964,42.309,193.55,80.187,267.313,147.586,90.459,82.655-22.563,137.012-98.448,166.091" transform="translate(111.355 108.055)" fill="none" stroke="#fff" stroke-miterlimit="10" stroke-width="1"/>
      <path id="Path_34" data-name="Path 34" d="M728.818-743.662C668.164-725.869,447.23-671.179,533.992-567.2c56.9,68.187,159.635,105.685,237.212,142.527,87.891,41.74,186.889,79.339,262.333,142.527,24.053,20.147,53.14,48.857,43.871,83.5-14.155,52.908-94.754,76.552-137.989,92.96" transform="translate(116.077 105.885)" fill="none" stroke="#fff" stroke-miterlimit="10" stroke-width="1"/>
      <path id="Path_35" data-name="Path 35" d="M735.713-746.284c-60.421,17.835-281,72.526-197.027,176.818C595.926-498.376,703.157-459.9,782.97-421.984c90.011,42.765,193.065,81.264,269.114,147.482,23.759,20.688,50.623,49.509,39.971,83.728-16.489,52.974-97.23,76.385-141.679,93.091" transform="translate(120.849 103.726)" fill="none" stroke="#fff" stroke-miterlimit="10" stroke-width="1"/>
      <path id="Path_36" data-name="Path 36" d="M742.534-748.892c-60.266,17.9-280.341,72.587-199.1,177.165,57.434,73.929,169.671,113.7,251.32,152.445,91.991,43.651,199.287,83.115,275.761,152.445,98.364,89.18-28.839,147.223-109.276,177.165" transform="translate(125.625 101.578)" fill="none" stroke="#fff" stroke-miterlimit="10" stroke-width="1"/>
      <path id="Path_37" data-name="Path 37" d="M749.049-751.488c-63.079,18.854-285.284,75.965-196.73,182.518,60.791,73.145,170.633,112.8,254.062,152.4,93.944,44.6,205.213,85.132,282.223,157.417,96.3,90.392-39.362,148.944-116.817,177.5" transform="translate(130.643 99.441)" fill="none" stroke="#fff" stroke-miterlimit="10" stroke-width="1"/>
      <path id="Path_38" data-name="Path 38" d="M755.693-754.07c-65.457,19.689-290.8,79.707-194.489,187.888,64.252,72.173,171.846,111.956,257.023,152.343,94.692,44.9,204.511,85.764,282.976,157.37,101.75,92.854-38.248,153.45-118.766,182.863" transform="translate(135.464 97.315)" fill="none" stroke="#fff" stroke-miterlimit="10" stroke-width="1"/>
      <path id="Path_39" data-name="Path 39" d="M762.326-756.64C696.483-736.706,472.356-676.685,565.9-568.4c64.711,74.91,177.143,115.962,264.3,157.3,96.408,45.731,210.821,87.655,289.325,162.342,98.825,94.023-47.837,154.742-126.47,183.2" transform="translate(140.232 95.198)" fill="none" stroke="#fff" stroke-miterlimit="10" stroke-width="1"/>
      <path id="Path_40" data-name="Path 40" d="M768.608-759.2C697.923-737.658,474.746-676.579,575.02-565.6c67.268,74.445,178.224,115.244,266.9,157.262,97.029,45.977,210.8,87.949,290.381,162.271,104.137,97.257-46.926,159.151-129,188.583" transform="translate(145.287 93.094)" fill="none" stroke="#fff" stroke-miterlimit="10" stroke-width="1"/>
      <path id="Path_41" data-name="Path 41" d="M775.093-761.74c-70,21.471-293.065,82.721-195.392,193.942,67.95,77.375,183.56,119.226,274.264,162.224,98.6,46.742,217.339,89.5,296.617,167.247,100.733,98.791-57.046,160.554-136.867,188.919" transform="translate(150.076 90.999)" fill="none" stroke="#fff" stroke-miterlimit="10" stroke-width="1"/>
      <path id="Path_42" data-name="Path 42" d="M781.422-764.27c-72.169,22.28-297.873,86.643-192.655,199.318,71.142,76.184,185.022,118.507,277.192,162.16,99.414,47.084,216.286,90.356,297.339,167.195,106.79,101.238-57.341,165.4-139.347,194.283" transform="translate(154.958 88.916)" fill="none" stroke="#fff" stroke-miterlimit="10" stroke-width="1"/>
      <path id="Path_43" data-name="Path 43" d="M787.738-766.787C715-744.18,491.271-680.5,593.409-567.123,664.867-487.8,783.923-444.6,878.065-400c101.167,47.934,222.451,92.053,303.457,172.172,103.931,102.791-67.651,166.79-147.376,194.617" transform="translate(159.79 86.843)" fill="none" stroke="#fff" stroke-miterlimit="10" stroke-width="1"/>
      <path id="Path_44" data-name="Path 44" d="M793.761-769.291c-76.505,23.936-300.1,89.814-191.026,205.02,74.173,78.345,191.714,121.853,287.243,167.08,101.6,48.1,222.428,92.589,304.472,172.1,108.893,105.526-68.055,171.505-150.434,200" transform="translate(164.855 84.781)" fill="none" stroke="#fff" stroke-miterlimit="10" stroke-width="1"/>
      <path id="Path_45" data-name="Path 45" d="M800.055-771.782c-76.117,23.974-299.439,89.79-192.573,205.364,75.146,81.271,197,125.726,294.8,172.045,103.151,48.853,228.775,94.229,310.473,177.076,105.793,107.283-78.445,172.84-158.63,200.335" transform="translate(169.588 82.73)" fill="none" stroke="#fff" stroke-miterlimit="10" stroke-width="1"/>
      <path id="Path_46" data-name="Path 46" d="M806.119-774.26c-79.6,25.242-303.42,93.957-189.351,210.745,78.259,80.123,198.38,124.975,297.689,171.976,103.876,49.163,227.962,94.878,311.159,177.019,111.154,109.742-78.5,177.437-161.649,205.7" transform="translate(174.495 80.69)" fill="none" stroke="#fff" stroke-miterlimit="10" stroke-width="1"/>
      <path id="Path_47" data-name="Path 47" d="M812.214-776.725c-79.789,25.477-302.073,93.532-190.771,211.086,78.74,83.164,204,128.967,305.336,176.946,105.415,49.909,234.209,96.615,317.039,182C1351.748-95.433,1154.525-27.864,1073.807-.661" transform="translate(179.309 78.66)" fill="none" stroke="#fff" stroke-miterlimit="10" stroke-width="1"/>
      <path id="Path_48" data-name="Path 48" d="M818.093-779.177c-84.014,27.01-305.668,97.717-187.011,216.447,82.028,82.079,204.835,128.124,307.907,176.9,105.7,50.016,234.5,96.873,318.007,181.92,112.514,114.6-89.55,183.337-173.6,211.423" transform="translate(184.283 76.641)" fill="none" stroke="#fff" stroke-miterlimit="10" stroke-width="1"/>
      <path id="Path_49" data-name="Path 49" d="M824.116-781.616c-83.474,27.025-304.687,97.877-188.306,216.788C718.883-479.95,846.124-432.82,951.454-382.961c107.39,50.833,240.262,98.816,323.764,186.9C1384.834-80.419,1174.232-11.192,1093.084,15.695" transform="translate(189.055 74.633)" fill="none" stroke="#fff" stroke-miterlimit="10" stroke-width="1"/>
      <path id="Path_50" data-name="Path 50" d="M829.812-784.042c-87.991,28.688-307.191,101.557-184.606,222.171,85.363,83.992,212.042,131.43,318.491,181.8,108.063,51.127,239.571,99.371,324.413,186.844C1402.926-74.854,1186.824-3.844,1102.407,23.89" transform="translate(194.099 72.635)" fill="none" stroke="#fff" stroke-miterlimit="10" stroke-width="1"/>
      <path id="Path_51" data-name="Path 51" d="M835.758-786.455c-87.147,28.613-306.418,101.827-185.781,222.51,86.795,86.828,217.333,135.184,326.317,186.769,108.429,51.32,239.477,99.708,325.3,186.767C1421.222-69.054,1199.023,3.726,1111.937,32.1" transform="translate(198.838 70.648)" fill="none" stroke="#fff" stroke-miterlimit="10" stroke-width="1"/>
      <path id="Path_52" data-name="Path 52" d="M841.335-788.854c-92.451,30.57-308.777,105.636-181.568,227.874C749.05-475.183,878.45-426.4,988.628-374.266c109.677,51.891,246.065,101.347,330.963,191.747C1435.313-59.3,1206.355,12.76,1121.052,40.323" transform="translate(203.892 68.673)" fill="none" stroke="#fff" stroke-miterlimit="10" stroke-width="1"/>
      <path id="Path_53" data-name="Path 53" d="M847.163-791.241C755.347-760.662,539.325-685.559,664.542-563.03c90.544,88.6,224.182,138.4,336.774,191.689,111.194,52.629,251.839,103.289,336.466,196.732,112.428,124.145-124.661,196.65-207.408,223.168" transform="translate(208.639 66.707)" fill="none" stroke="#fff" stroke-miterlimit="10" stroke-width="1"/>
      <path id="Path_54" data-name="Path 54" d="M852.534-793.615c-97.491,32.7-308.971,109.576-178.452,233.6C766.57-472.132,900.095-422.14,1013.655-368.4c111.677,52.844,251.615,103.532,337.073,196.67,116.978,127.49-125.271,201.121-211.536,228.542" transform="translate(213.791 64.753)" fill="none" stroke="#fff" stroke-miterlimit="10" stroke-width="1"/>
      <path id="Path_55" data-name="Path 55" d="M858.326-795.975c-95.8,32.369-308.642,109.981-179.384,233.931,94.256,90.387,231.417,141.608,347.567,196.59,112.259,53.14,250.807,104.27,337.915,196.59C1487.33-38.6,1235.646,37.554,1148.379,65.069" transform="translate(218.471 62.809)" fill="none" stroke="#fff" stroke-miterlimit="10" stroke-width="1"/>
      <path id="Path_56" data-name="Path 56" d="M865.228-798.323c-66.631,22.68-185.655,54.052-217.054,128.792C630.05-626.388,660.1-587.137,690.5-559.022c96.7,89.431,232.635,140.945,350.085,196.531C1153.9-308.86,1298.2-256.621,1383.9-160.917,1502.16-28.836,1243.844,46.69,1158.625,73.345" transform="translate(221.989 60.876)" fill="none" stroke="#fff" stroke-miterlimit="10" stroke-width="1"/>
      <path id="Path_57" data-name="Path 57" d="M869.232-800.657C768.183-766.01,560.445-686.221,693.69-561.024c98.184,92.254,238.177,144.7,358.161,201.511C1166.766-305.1,1315.073-251.893,1400.4-152.95c114.716,133.018-151.312,208.778-234.48,234.583" transform="translate(228.356 58.954)" fill="none" stroke="#fff" stroke-miterlimit="10" stroke-width="1"/>
      <path id="Path_58" data-name="Path 58" d="M876.249-802.978C809.12-779.79,692.7-748.084,660.435-673.944,640.7-628.586,673.246-587.3,705.329-557.956c100.044,91.492,240.042,144.21,360.909,201.433,115.236,54.557,263.035,107.919,349.115,206.495,119.179,136.483-152.888,213.4-239.177,239.962" transform="translate(231.659 57.043)" fill="none" stroke="#fff" stroke-miterlimit="10" stroke-width="1"/>
      <path id="Path_59" data-name="Path 59" d="M881.671-805.286C814.395-781.873,699.2-750.044,666.543-676.135c-19.9,45.033,11.506,86.7,43.514,116.2C812.1-465.9,955.465-412.1,1079.124-353.52c115.667,54.8,262.6,108.4,349.91,206.413C1553.221-7.706,1273.008,71.3,1184.778,98.246" transform="translate(236.508 55.143)" fill="none" stroke="#fff" stroke-miterlimit="10" stroke-width="1"/>
      <path id="Path_60" data-name="Path 60" d="M887.06-807.582C819.813-784,698.61-750.154,670.564-672.79c-15.787,43.549,13.977,82.371,44.278,110.887,103.047,96.978,251.352,151.774,377.239,211.4,117.24,55.529,268.133,110.169,355.032,211.4,120.546,140.427-167.6,219.55-253.825,245.678" transform="translate(241.343 53.252)" fill="none" stroke="#fff" stroke-miterlimit="10" stroke-width="1"/>
      <path id="Path_61" data-name="Path 61" d="M892.409-809.864c-67.776,23.947-187.217,57.527-215.77,134.915-16.991,46.052,16.338,86.908,48.667,116.141,105.97,95.83,252.324,150.926,379.781,211.334,72.477,34.35,145.3,68.6,215.023,108.342,51.313,29.251,107.053,61.688,144.976,108.048,115.946,141.736-179.255,220.7-263.384,246" transform="translate(246.169 51.373)" fill="none" stroke="#fff" stroke-miterlimit="10" stroke-width="1"/>
      <path id="Path_62" data-name="Path 62" d="M897.858-812.133c-67.284,23.954-193.384,59.515-217.171,140.574-13.679,46.614,22.869,87.415,55.136,115.873,107.711,95,254.255,150.494,382.474,211.254,69.551,32.956,139.305,65.913,206.469,103.577,54.278,30.438,113.783,64.115,154.044,112.742,120.5,145.538-182.4,225.644-268.66,251.38" transform="translate(250.851 49.505)" fill="none" stroke="#fff" stroke-miterlimit="10" stroke-width="1"/>
      <path id="Path_63" data-name="Path 63" d="M903.1-814.389c-67.437,24.193-192.2,60-216.4,140.7-13.9,46.357,21.763,87.548,53.9,116.077,109.835,97.5,259.7,154.071,390.785,216.235,72.446,34.355,145.118,68.726,214.87,108.362,51.6,29.322,107.574,61.92,146.391,107.875,125.566,148.661-186.2,230.686-274.317,256.775" transform="translate(255.69 47.647)" fill="none" stroke="#fff" stroke-miterlimit="10" stroke-width="1"/>
      <path id="Path_64" data-name="Path 64" d="M908.315-816.632c-67.559,24.425-191,60.359-215.586,140.821-14.179,46.391,20.681,87.32,52.708,116.277,111.081,100.439,265.593,157.911,399.12,221.224,72.41,34.335,145,68.763,214.715,108.375,53.6,30.455,111.925,64.286,151.382,112.849,121.412,149.434-198.364,231.866-284.236,257.1" transform="translate(260.517 45.8)" fill="none" stroke="#fff" stroke-miterlimit="10" stroke-width="1"/>
      <path id="Path_65" data-name="Path 65" d="M913.479-818.862c-66.773,24.33-189.916,61.119-214.735,140.939-15.18,48.826,23.374,91.864,57.4,121.54,113.774,99.229,266.768,157.168,401.613,221.155,72.379,34.346,145.013,68.728,214.685,108.378,55.171,31.4,116.792,66.482,156.094,117.84,115.6,151.055-208.234,232.362-294.144,257.415" transform="translate(265.347 43.964)" fill="none" stroke="#fff" stroke-miterlimit="10" stroke-width="1"/>
      <path id="Path_66" data-name="Path 66" d="M918.6-821.078c-66.837,24.543-188.729,61.566-213.843,141.056-16.217,51.336,26.2,96.318,62.016,126.815,115.583,98.4,268.556,156.686,404.244,221.073,75.243,35.7,150.771,71.483,222.94,113.167,52.412,30.272,110.63,64.321,148.3,112.979,119.842,154.788-211.013,237.039-300.01,262.8" transform="translate(270.172 42.139)" fill="none" stroke="#fff" stroke-miterlimit="10" stroke-width="1"/>
      <path id="Path_67" data-name="Path 67" d="M923.682-823.282c-67.177,24.864-187.411,61.56-212.917,141.171-16.407,51.209,25.052,96.278,60.847,127.025,117.541,100.966,274.28,160.324,412.7,226.06,75.2,35.713,150.607,71.571,222.78,113.179,52.883,30.488,110.525,64.44,149.155,112.88,125.6,157.488-217.524,242.7-306.254,268.2" transform="translate(275.005 40.324)" fill="none" stroke="#fff" stroke-miterlimit="10" stroke-width="1"/>
      <path id="Path_68" data-name="Path 68" d="M928.651-825.473c-67.105,25.036-193.1,63.936-213.373,146.822-12.108,49.5,26.757,91.747,61.145,121.695C895.6-453.17,1056.518-392.913,1197.612-325.906c75.177,35.7,150.567,71.58,222.71,113.183,54.548,31.458,115.049,66.812,153.769,117.867,120.528,158.922-228.735,243.481-316.529,268.516" transform="translate(279.902 38.52)" fill="none" stroke="#fff" stroke-miterlimit="10" stroke-width="1"/>
      <path id="Path_69" data-name="Path 69" d="M933.65-827.651c-67.177,25.265-191.829,64.286-212.4,146.94C708.292-628.651,751-584.42,787.385-553.75,909.1-451.167,1068.7-390.412,1211.01-322.773c77.984,37.066,156.3,74.27,230.845,117.975,53.368,31.288,113.188,66.852,150.027,118.07,115.1,160.048-239.9,244.236-326.8,268.833" transform="translate(284.728 36.727)" fill="none" stroke="#fff" stroke-miterlimit="10" stroke-width="1"/>
      <path id="Path_70" data-name="Path 70" d="M938.734-829.815c-67.62,25.624-195.343,65.971-212.576,151.154C715.725-627.095,759.4-583.147,795.3-553.079c123.608,103.525,285.118,164.9,429.287,233.452,77.222,36.72,154.75,73.608,228.638,116.773,53.627,31.33,112.62,66.464,150.868,116.679C1729.215,78.1,1361.884,165.488,1272.615,190.563" transform="translate(289.43 34.945)" fill="none" stroke="#fff" stroke-miterlimit="10" stroke-width="1"/>
      <path id="Path_71" data-name="Path 71" d="M943.648-831.967C875.978-806.113,749.6-765.631,732.1-680.678c-10.609,51.486,32.437,95.511,68.156,125.794C925.586-448.628,1091.285-386.289,1238.1-316.465c77.2,36.713,154.545,73.728,228.45,116.8,55.157,32.143,117.182,68.825,155.353,121.624,119.682,165.537-253.42,252.379-342,277.081" transform="translate(294.262 33.173)" fill="none" stroke="#fff" stroke-miterlimit="10" stroke-width="1"/>
      <path id="Path_72" data-name="Path 72" d="M948.53-834.1c-66.83,25.741-192.8,67.038-210.491,151.418C726.7-628.615,773.67-582.674,811.371-551.665,939.1-446.6,1103.681-383.725,1251.644-313.294c77.167,36.731,154.484,73.775,228.388,116.812C1536.846-163.4,1601.614-125.389,1639.6-69.9c114.179,166.793-264.884,253.158-352.523,277.42" transform="translate(299.086 31.412)" fill="none" stroke="#fff" stroke-miterlimit="10" stroke-width="1"/>
      <path id="Path_73" data-name="Path 73" d="M953.374-836.23c-67.177,26.088-191.457,67.216-209.4,151.546-12.046,56.621,38.9,104.407,78.458,136.266,129.443,104.234,294.031,167.47,442.822,238.31,79.918,38.049,160.116,76.4,236.324,121.571,54.161,32.1,115.406,68.914,152.011,121.77,118.132,170.566-269.86,258.154-359.463,282.783" transform="translate(303.912 29.663)" fill="none" stroke="#fff" stroke-miterlimit="10" stroke-width="1"/>
      <path id="Path_74" data-name="Path 74" d="M958.176-838.343C891-812.038,768.023-770.694,749.905-686.669c-12.2,56.6,38.06,104.381,77.5,136.486,131.352,106.916,299.965,171.069,451.485,243.275,77.072,36.727,154.314,73.794,228.107,116.85,57.231,33.392,121.589,71.381,160.834,126.425C1791.5,109.8,1391.538,199.832,1301.06,224.524" transform="translate(308.742 27.923)" fill="none" stroke="#fff" stroke-miterlimit="10" stroke-width="1"/>
      <path id="Path_75" data-name="Path 75" d="M962.938-840.442c-67.169,26.523-188.837,68-207.111,151.8-12.317,56.48,37.3,104.5,76.587,136.7C965.954-442.485,1138.174-377.307,1292.6-303.7c79.831,38.053,159.883,76.483,236.021,121.607,56.136,33.266,119.614,71.363,156.914,126.638,117.769,174.521-287.526,264.074-377.664,288.5" transform="translate(313.574 26.194)" fill="none" stroke="#fff" stroke-miterlimit="10" stroke-width="1"/>
      <path id="Path_76" data-name="Path 76" d="M967.592-842.528c-67.583,26.912-193.694,70.453-206.77,157.421-8.6,57.193,42.646,104.354,82.889,136.441C979.5-440.4,1150.8-374.645,1306.255-300.472c82.539,39.38,165.417,79.142,243.834,126.368,54.828,33.02,117.718,71.529,152.945,126.851,111.9,175.735-298.778,264.682-388.552,288.835" transform="translate(318.478 24.477)" fill="none" stroke="#fff" stroke-miterlimit="10" stroke-width="1"/>
      <path id="Path_77" data-name="Path 77" d="M972.378-844.6c-67.18,26.979-198.585,73.09-206.429,163.055-5.011,57.454,48.43,104.454,89.18,136.182,137.708,107.217,308.7,173.516,465.024,248.129,79.729,38.055,159.627,76.562,235.686,121.642,56.535,33.509,119.594,71.624,158.076,126.489,127.294,181.494-301.117,274.749-392.771,299.237" transform="translate(323.216 22.77)" fill="none" stroke="#fff" stroke-miterlimit="10" stroke-width="1"/>
      <path id="Path_78" data-name="Path 78" d="M977.039-846.661c-67.339,27.275-197.159,73.493-205.2,163.187-5.157,57.5,47.659,104.345,88.333,136.393,139.592,109.985,314.718,177.087,473.813,253.1,82.429,39.382,165.169,79.191,243.479,126.4,55.353,33.37,117.64,71.664,154.157,126.695,121.246,182.712-312.637,275.332-404.031,299.58" transform="translate(328.044 21.074)" fill="none" stroke="#fff" stroke-miterlimit="10" stroke-width="1"/>
      <path id="Path_79" data-name="Path 79" d="M981.665-848.708c-67.335,27.5-194.181,73.369-203.8,161.9-6.433,59.194,48.889,107.939,90.651,140.5,141.862,110.623,318.263,178.565,479.356,255.584,81.693,39.058,163.61,78.618,241.327,125.243,58.032,34.816,125.747,75.712,161.559,135.323,109.706,182.608-325.655,273.4-416.849,297.423" transform="translate(332.874 19.388)" fill="none" stroke="#fff" stroke-miterlimit="10" stroke-width="1"/>
      <path id="Path_80" data-name="Path 80" d="M986.262-850.742C919-823.037,793.514-777.105,783.751-688.7c-6.82,61.754,52.516,112.359,96.264,145.718,143.722,109.589,319.864,178.08,481.808,255.539,84.366,40.354,169.005,81.246,248.933,129.977,54.258,33.08,115.225,71.452,151.117,125.564,124.961,188.4-329.524,283.631-421.769,307.76" transform="translate(337.701 17.713)" fill="none" stroke="#fff" stroke-miterlimit="10" stroke-width="1"/>
      <path id="Path_81" data-name="Path 81" d="M990.825-852.763C923.6-824.826,799.494-778.751,789.637-690.585c-6.929,61.961,51.615,112.118,95.505,145.946,145.7,112.3,325.932,181.614,490.654,260.486,81.58,39.061,163.342,78.706,240.957,125.3,58.327,35.015,125.684,76.024,162.712,135.19C1898,165.746,1438.751,260.409,1346.176,284.46" transform="translate(342.528 16.049)" fill="none" stroke="#fff" stroke-miterlimit="10" stroke-width="1"/>
      <path id="Path_82" data-name="Path 82" d="M995.355-854.771c-67.372,28.243-189.885,74.186-199.839,162.313C788.527-630.586,846.672-580.2,890.3-546.287c147.792,114.879,331.989,185.172,499.541,265.438,84.253,40.361,168.71,81.333,248.539,130.03,57.428,35.031,123.507,75.867,158.552,135.411,32.426,55.093,11.318,106.978-35.073,146.171-109.733,92.7-275.362,127.639-409.742,162.311" transform="translate(347.358 14.396)" fill="none" stroke="#fff" stroke-miterlimit="10" stroke-width="1"/>
      <path id="Path_83" data-name="Path 83" d="M999.769-856.766c-67.921,28.726-194.026,76.9-198.736,167.907-3.222,62.235,56.557,112.253,100.979,145.921,149.969,113.663,333.264,184.573,501.812,265.406,86.845,41.65,174.071,83.945,256.02,134.767,55.818,34.618,121.618,76.27,154.347,135.629,31.357,56.874,5.89,107.833-40.844,146.393-112.011,92.422-279.393,127.563-415.5,162.445" transform="translate(352.272 12.753)" fill="none" stroke="#fff" stroke-miterlimit="10" stroke-width="1"/>
      <path id="Path_84" data-name="Path 84" d="M1004.311-858.747c-68.336,29.16-198.452,79.671-197.62,173.513.551,62.317,61.894,112.073,107.162,145.673,151.8,112.671,334.761,184.059,504.184,265.358,84.116,40.363,168.4,81.423,248.108,130.083,57.454,35.073,123.582,76.436,159.6,135.277,34.842,56.922,14.173,110.105-34.364,151.141-114.416,96.736-287.587,132.358-427.779,168.044" transform="translate(357.03 11.122)" fill="none" stroke="#fff" stroke-miterlimit="10" stroke-width="1"/>
      <path id="Path_85" data-name="Path 85" d="M1008.75-860.716c-68.307,29.412-196.912,80.077-196.2,173.655.48,62.563,60.948,111.755,106.5,145.892,153.869,115.307,340.929,187.577,513.144,270.309,86.712,41.658,173.729,84.032,255.564,134.818C1744.424-100.878,1809.082-59.892,1843.2-.55c31.344,54.518,11.583,106.061-33.549,145.892C1694.687,246.8,1511.889,282.907,1369.158,319" transform="translate(361.859 9.501)" fill="none" stroke="#fff" stroke-miterlimit="10" stroke-width="1"/>
      <path id="Path_86" data-name="Path 86" d="M1013.164-862.672c-68.5,29.753-193.951,79.733-194.746,172.393-.553,64.552,62.734,115.419,109.274,149.981,156.088,115.916,344.567,189.05,518.731,272.792,85.987,41.346,172.2,83.44,253.433,133.675,58.7,36.3,129.384,80.617,162.005,144.072,29.04,56.491,2.837,107.169-42.287,145.029-119.288,100.08-299.224,135.79-444.992,172.393" transform="translate(366.687 7.89)" fill="none" stroke="#fff" stroke-miterlimit="10" stroke-width="1"/>
      <path id="Path_87" data-name="Path 87" d="M1017.549-864.614c-68.518,30.032-192.431,80.19-193.266,172.539-.605,67.014,67.041,119.886,115.353,155.173,157.629,115.13,346.154,188.6,521.07,272.767,88.532,42.6,177.457,85.987,260.7,138.385,55.68,35.046,118.717,75.849,152.251,134.38,34.534,60.279,7.292,114.585-42.655,155.173-122.628,99.648-302.669,135.509-451.128,172.541" transform="translate(371.516 6.291)" fill="none" stroke="#fff" stroke-miterlimit="10" stroke-width="1"/>
      <path id="Path_88" data-name="Path 88" d="M1021.9-866.544c-68.46,30.285-190.9,80.67-191.756,172.685C829.53-627.02,896.526-574,944.93-538.451c160.023,117.532,352.24,192.028,530.076,277.7,85.85,41.357,171.853,83.527,252.957,133.744,59.07,36.572,129.06,80.609,163.026,143.953,32.922,61.4,1.865,115.57-48.7,155.408-125.806,99.119-306.279,135.274-457.26,172.685" transform="translate(376.345 4.702)" fill="none" stroke="#fff" stroke-miterlimit="10" stroke-width="1"/>
      <path id="Path_89" data-name="Path 89" d="M1026.235-868.46c-68.371,30.526-189.373,81.124-190.223,172.827-.622,67.142,65.4,119.567,114.244,155.64C1112.742-420,1308.509-344.556,1489.385-257.36c88.377,42.6,177.067,86.124,260.2,138.454C1807.418-82.5,1876.619-37.929,1908.2,25.275c31.109,62.268-4.084,116.9-54.754,155.639-128.854,98.528-310.028,135.075-463.387,172.827" transform="translate(381.174 3.124)" fill="none" stroke="#fff" stroke-miterlimit="10" stroke-width="1"/>
      <path id="Path_90" data-name="Path 90" d="M1030.462-870.363c-69.366,31.259-192.771,84-188.381,178.4,3.136,67.426,70.628,119.437,120.329,155.4,164.186,118.792,359.778,195,541.29,282.615,90.91,43.88,182.208,88.658,267.337,143.167C1827.826-74.42,1895.8-29.856,1925.2,33.623c29.576,63.871-9.881,118.05-60.82,155.869-131.787,97.845-313.894,134.911-469.51,172.967" transform="translate(386.081 1.557)" fill="none" stroke="#fff" stroke-miterlimit="10" stroke-width="1"/>
      <path id="Path_91" data-name="Path 91" d="M1034.819-872.254c-69.6,31.653-195.313,86.512-186.658,182.57,6.037,67,73.2,118.167,123.042,154.07,166.19,119.72,363.629,196.468,547.032,285.084,90.175,43.571,180.666,88.082,265.2,142.02,56.894,36.3,124.273,80.653,155.291,143.063,30.458,61.281-1.815,115.083-50.733,154.07-133.008,106-327.918,143.612-488.3,182.569" transform="translate(390.832)" fill="none" stroke="#fff" stroke-miterlimit="10" stroke-width="1"/>
    </g>
  </g>
</svg>
